<?xml version="1.0" encoding="UTF-8" standalone="no"?>
<!-- Created with Inkscape (http://www.inkscape.org/) -->

<svg
   xmlns:osb="http://www.openswatchbook.org/uri/2009/osb"
   xmlns:dc="http://purl.org/dc/elements/1.1/"
   xmlns:cc="http://creativecommons.org/ns#"
   xmlns:rdf="http://www.w3.org/1999/02/22-rdf-syntax-ns#"
   xmlns:svg="http://www.w3.org/2000/svg"
   xmlns="http://www.w3.org/2000/svg"
   xmlns:xlink="http://www.w3.org/1999/xlink"
   xmlns:sodipodi="http://sodipodi.sourceforge.net/DTD/sodipodi-0.dtd"
   xmlns:inkscape="http://www.inkscape.org/namespaces/inkscape"
   width="210mm"
   height="297mm"
   viewBox="0 0 210 297"
   version="1.1"
   id="svg8"
   inkscape:version="0.92.4 (5da689c313, 2019-01-14)"
   sodipodi:docname="design_img.svg">
  <defs
     id="defs2">
    <linearGradient
       inkscape:collect="always"
       id="linearGradient2626">
      <stop
         style="stop-color:#000000;stop-opacity:1;"
         offset="0"
         id="stop2622" />
      <stop
         style="stop-color:#000000;stop-opacity:0;"
         offset="1"
         id="stop2624" />
    </linearGradient>
    <linearGradient
       inkscape:collect="always"
       id="linearGradient2590"
       osb:paint="gradient">
      <stop
         style="stop-color:#ff000b;stop-opacity:1;"
         offset="0"
         id="stop2586" />
      <stop
         style="stop-color:#ff000b;stop-opacity:0;"
         offset="1"
         id="stop2588" />
    </linearGradient>
    <radialGradient
       inkscape:collect="always"
       xlink:href="#linearGradient2626"
       id="radialGradient2630"
       cx="-64.953819"
       cy="125.31408"
       fx="-64.953819"
       fy="125.31408"
       r="3.9260225"
       gradientTransform="matrix(1,0,0,2.7397084,0,-218.00995)"
       gradientUnits="userSpaceOnUse" />
  </defs>
  <sodipodi:namedview
     id="base"
     pagecolor="#ffffff"
     bordercolor="#666666"
     borderopacity="1.0"
     inkscape:pageopacity="0.0"
     inkscape:pageshadow="2"
     inkscape:zoom="0.49497475"
     inkscape:cx="-21.831984"
     inkscape:cy="795.41457"
     inkscape:document-units="mm"
     inkscape:current-layer="layer1"
     showgrid="false"
     inkscape:window-width="1920"
     inkscape:window-height="1057"
     inkscape:window-x="1912"
     inkscape:window-y="-8"
     inkscape:window-maximized="1" />
  <metadata
     id="metadata5">
    <rdf:RDF>
      <cc:Work
         rdf:about="">
        <dc:format>image/svg+xml</dc:format>
        <dc:type
           rdf:resource="http://purl.org/dc/dcmitype/StillImage" />
        <dc:title></dc:title>
      </cc:Work>
    </rdf:RDF>
  </metadata>
  <g
     inkscape:label="圖層 1"
     inkscape:groupmode="layer"
     id="layer1">
    <path
       style="fill:#ff000b;fill-opacity:1;stroke-width:0.99999994"
       d="M 78.134766 271.7793 L 47.830078 302.08398 L 105.41016 359.66211 L 47.830078 417.24219 L 78.134766 447.54492 L 135.71484 389.9668 L 193.29297 447.54492 L 223.59766 417.24219 L 166.01758 359.66211 L 223.59766 302.08398 L 193.29297 271.7793 L 135.71484 329.35938 L 78.134766 271.7793 z "
       transform="scale(0.26458333)"
       id="rect10"
       inkscape:export-xdpi="8.7389135"
       inkscape:export-ydpi="8.7389135" />
    <path
       style="fill:#ff6f00;fill-opacity:1;stroke:#000000;stroke-width:0.26458332;stroke-opacity:1"
       d="m 125.38109,69.737491 a 23.080789,23.080789 0 0 0 -4.00389,0.711067 l -0.4656,4.351155 a 18.376546,19.178354 0 0 0 -4.55476,2.661854 l -4.0628,-2.094963 a 23.080789,23.080789 0 0 0 -2.81999,2.941423 l 2.44378,4.251936 a 18.376546,19.178354 0 0 0 -1.91823,4.281908 l -5.00331,0.767398 a 23.080789,23.080789 0 0 0 -0.53692,4.039544 l 4.68705,2.097548 a 18.376546,19.178354 0 0 0 0.76017,4.482412 l -3.60392,3.568777 a 23.080789,23.080789 0 0 0 1.9172,3.59151 l 4.7165,-0.99322 a 18.376546,19.178354 0 0 0 3.49643,3.5972 l -0.73845,4.5191 a 23.080789,23.080789 0 0 0 3.67367,1.76682 l 2.89233,-3.19981 a 18.376546,19.178354 0 0 0 5.22708,0.80202 18.376546,19.178354 0 0 0 0.19636,-0.007 l 1.90996,3.7946 a 23.080789,23.080789 0 0 0 4.00389,-0.71159 l 0.46561,-4.35012 a 18.376546,19.178354 0 0 0 4.55476,-2.66289 l 4.06332,2.09548 a 23.080789,23.080789 0 0 0 2.81998,-2.94194 l -2.44378,-4.25142 a 18.376546,19.178354 0 0 0 1.91823,-4.281906 l 5.0028,-0.767395 a 23.080789,23.080789 0 0 0 0.53692,-4.039547 l -4.68654,-2.097546 a 18.376546,19.178354 0 0 0 -0.76068,-4.482414 l 3.60443,-3.568774 a 23.080789,23.080789 0 0 0 -1.91719,-3.591513 l -4.71651,0.993222 a 18.376546,19.178354 0 0 0 -3.49694,-3.597195 l 0.73845,-4.519105 A 23.080789,23.080789 0 0 0 135.60683,71.1273 l -2.89234,3.199803 a 18.376546,19.178354 0 0 0 -5.22706,-0.802018 18.376546,19.178354 0 0 0 -0.19638,0.0072 z m 2.10634,16.250686 a 6.7146677,6.7146677 0 0 1 6.71483,6.714837 6.7146677,6.7146677 0 0 1 -6.71483,6.714836 6.7146677,6.7146677 0 0 1 -6.71433,-6.714836 6.7146677,6.7146677 0 0 1 6.71433,-6.714837 z"
       id="path2660"
       inkscape:export-xdpi="8.7389135"
       inkscape:export-ydpi="8.7389135"
       inkscape:connector-curvature="0"
       inkscape:export-filename="C:\Users\Tommy\path2660.png" />
  </g>
</svg>
